<?xml version="1.0" encoding="iso-8859-1"?>
<!-- Uploaded to: SVG Repo, www.svgrepo.com, Generator: SVG Repo Mixer Tools -->
<svg fill="#000000" height="800px" width="800px" version="1.1" id="Layer_1" xmlns="http://www.w3.org/2000/svg" xmlns:xlink="http://www.w3.org/1999/xlink" 
	 viewBox="0 0 512 512" xml:space="preserve">
<g>
	<g>
		<path d="M116.87,166.956c-27.618,0-50.087,22.469-50.087,50.087v33.391c0,9.22,7.475,16.696,16.696,16.696h66.783
			c9.22,0,16.696-7.475,16.696-16.696v-33.391C166.957,189.425,144.489,166.956,116.87,166.956z M133.565,233.739h-33.391v-16.696
			c0-9.206,7.49-16.696,16.696-16.696s16.696,7.49,16.696,16.696V233.739z"/>
	</g>
</g>
<g>
	<g>
		<path d="M495.304,411.826c-45.342,0-78.471-25.254-93.246-59.028c-29.793-68.11-94.898-113.518-168.319-118.58V116.869
			c0-4.251-1.676-8.584-4.877-11.792c-0.006-0.006-0.01-0.011-0.016-0.017L128.676,4.89c-6.519-6.52-17.091-6.52-23.611,0
			L4.893,105.061c-0.006,0.006-0.01,0.011-0.016,0.017C1.709,108.254,0,112.526,0,116.869v378.435C0,504.525,7.475,512,16.696,512
			h66.783c9.22,0,16.696-7.475,16.696-16.696v-27.826h33.391v27.826c0,9.22,7.475,16.696,16.696,16.696h66.783
			c9.22,0,16.696-7.475,16.696-16.696V334.881c11.836,1.661,23.125,5.444,33.391,11.035v149.388c0,9.22,7.475,16.696,16.696,16.696
			c9.22,0,16.696-7.475,16.696-16.696V375.642c12.018,17.035,12.348,29.813,33.391,57.608v62.054c0,9.22,7.475,16.696,16.696,16.696
			s16.696-7.475,16.696-16.696v-27.572c35.069,28.381,78.047,44.268,128,44.268c9.22,0,16.696-7.475,16.696-16.696v-66.783
			C512,419.301,504.525,411.826,495.304,411.826z M116.87,40.308l59.867,59.866H57.002L116.87,40.308z M133.565,434.087h-33.391
			v-33.391h33.391V434.087z M133.565,367.304h-33.391v-33.391h33.391V367.304z M200.348,478.608h-33.391V317.217
			c0-9.22-7.475-16.696-16.696-16.696H83.478c-9.22,0-16.696,7.475-16.696,16.696v161.391H33.391V133.565h166.957
			C200.348,143.582,200.348,461.749,200.348,478.608z M478.609,478.041c-60.137-4.991-113.252-42.532-137.726-98.483
			c-19.168-43.809-60.389-73.45-107.144-78.324v-33.536c60.137,4.991,113.252,42.532,137.726,98.483
			c19.157,43.784,60.297,73.44,107.144,78.324V478.041z"/>
	</g>
</g>
</svg>